<?xml version="1.0" encoding="utf-8"?>
<!-- Generator: Adobe Illustrator 18.0.0, SVG Export Plug-In . SVG Version: 6.00 Build 0)  -->
<!DOCTYPE svg PUBLIC "-//W3C//DTD SVG 1.1//EN" "http://www.w3.org/Graphics/SVG/1.1/DTD/svg11.dtd">
<svg version="1.1" id="Arrow_1_" xmlns="http://www.w3.org/2000/svg" xmlns:xlink="http://www.w3.org/1999/xlink" x="0px" y="0px"
	 width="500px" height="500px" viewBox="0 0 500 500" enable-background="new 0 0 500 500" xml:space="preserve">
  <metadata>
    <?xpacket begin="﻿" id="W5M0MpCehiHzreSzNTczkc9d"?>
    <x:xmpmeta xmlns:x="adobe:ns:meta/" x:xmptk="Adobe XMP Core 5.6-c011 79.156380, 2014/06/19-23:40:37        ">
     <rdf:RDF xmlns:rdf="http://www.w3.org/1999/02/22-rdf-syntax-ns#">
      <rdf:Description rdf:about=""
        xmlns:xmpMM="http://ns.adobe.com/xap/1.0/mm/"
        xmlns:stEvt="http://ns.adobe.com/xap/1.0/sType/ResourceEvent#"
        xmlns:xmp="http://ns.adobe.com/xap/1.0/"
        xmlns:xmpRights="http://ns.adobe.com/xap/1.0/rights/"
        xmlns:dc="http://purl.org/dc/elements/1.1/"
       xmpMM:DocumentID="xmp.did:0043f067078a0e30b8791397449857b3"
       xmpMM:OriginalDocumentID="xmp.did:0043f067078a0e30b8791397449857b3"
       xmpMM:InstanceID="xmp.iid:0043f067078a0e30b8791397449857b3"
       xmp:ModifyDate="2015-04-10T11:24:28+02:00"
       xmp:MetadataDate="2015-04-10T11:24:28+02:00"
       xmpRights:Marked="True"
       xmpRights:WebStatement="http://www.adobe.com/legal/general-terms.html">
       <xmpMM:History>
        <rdf:Seq>
         <rdf:li
          stEvt:action="saved"
          stEvt:instanceID="xmp.iid:0043f067078a0e30b8791397449857b3"
          stEvt:when="2015-04-10T11:24:28+02:00"/>
        </rdf:Seq>
       </xmpMM:History>
       <xmpRights:UsageTerms>
        <rdf:Alt>
         <rdf:li xml:lang="x-default">This work is licensed under the Adobe General Terms of Use http://www.adobe.com/legal/general-terms.html.</rdf:li>
        </rdf:Alt>
       </xmpRights:UsageTerms>
       <dc:publisher>
        <rdf:Bag>
         <rdf:li>Adobe Systems Incorporated</rdf:li>
        </rdf:Bag>
       </dc:publisher>
      </rdf:Description>
     </rdf:RDF>
    </x:xmpmeta>
    <?xpacket end="r"?>
  </metadata>
<g>
	<g id="Shape_1_26_">
		<path fill="#2A467B" d="M406,37.6H94c-41.5,0-75.2,33.7-75.2,75.2v312c0,41.5,33.7,75.2,75.2,75.2h312c41.5,0,75.2-33.7,75.2-75.2
			v-312C481.2,71.3,447.5,37.6,406,37.6z"/>
	</g>
	<g id="Shape_1_copy_26_">
		<path fill="#1879FD" d="M406,0H94C52.5,0,18.8,33.7,18.8,75.2v312c0,41.5,33.7,75.2,75.2,75.2h312c41.5,0,75.2-33.7,75.2-75.2
			v-312C481.2,33.7,447.5,0,406,0z"/>
	</g>
	<path fill="#025EC1" d="M347.8,207.9c-3.6-5.6-8.2-11.1-13.4-16.4l19.8-18.6c0,0-39.1-14.1-39.5-14.8c-0.4-0.5-11.8,3.6-15.2,4.9
		c-8-5.4-13.7-8.7-13.7-8.7l-65.1,72.9c0,0-1.4-34,1.9-46.4c3.2-12-56.3-31.5-56.3-31.5l-37.3,23l-7.5-15.4l-5.3-15.8
		c0,0-52.8,51.7-97.3,95.2v150.8c0,41.5,33.7,75.2,75.2,75.2h106.2c62.6-59.5,125-119.1,163.3-156.9c3.6-3.6,4.1-9.8,7.3-13
		l-9.9-17.9l18.3-13.8C379.2,260.8,359.1,225.8,347.8,207.9z"/>
	<g id="Behance_icon_1_">
		<path fill="#F4F4F4" d="M354.1,154h-69v18.9h69V154z M322.8,185.4c-62.9,0-62.8,65.8-62.8,65.8s-4.3,66.2,62.8,66.2
			c0,0,56.3-0.1,56.3-44H350c0,0,1,16.8-26.2,16.8c0,0-30,2.6-30-29.4l85.4,0C379.2,260.8,389,185.4,322.8,185.4z M294.5,235.7
			c0,0,2.9-25.1,28.2-25.1c25.3,0,25.2,25.1,25.2,25.1H294.5z M222.2,220.2c0,0,25.3-3.7,25.3-34.6c0-30.8-20.8-44.1-46.7-44.1
			h-85.2v175.7l86,0.1c0,0,52.1-1.8,52.1-54.4C253.8,263,255.1,220.2,222.2,220.2z M153.3,172.9h47.6c0,0,12,0.8,12,18.7
			c0,17.9-7.2,19-14.9,19h-44.6V172.9z M198.4,285.8h-45.2v-50.2h47.6c0,0,18.4,1.3,18.4,25.2C219.3,281,205.2,285.6,198.4,285.8z"
			/>
	</g>
</g>
</svg>
