<?xml version="1.0" encoding="utf-8"?>
<!-- Generator: Adobe Illustrator 18.0.0, SVG Export Plug-In . SVG Version: 6.00 Build 0)  -->
<!DOCTYPE svg PUBLIC "-//W3C//DTD SVG 1.1//EN" "http://www.w3.org/Graphics/SVG/1.1/DTD/svg11.dtd">
<svg version="1.1" id="Arrow_1_" xmlns="http://www.w3.org/2000/svg" xmlns:xlink="http://www.w3.org/1999/xlink" x="0px" y="0px"
	 width="500px" height="500px" viewBox="0 0 500 500" enable-background="new 0 0 500 500" xml:space="preserve">
  <metadata>
    <?xpacket begin="﻿" id="W5M0MpCehiHzreSzNTczkc9d"?>
    <x:xmpmeta xmlns:x="adobe:ns:meta/" x:xmptk="Adobe XMP Core 5.6-c011 79.156380, 2014/06/19-23:40:37        ">
     <rdf:RDF xmlns:rdf="http://www.w3.org/1999/02/22-rdf-syntax-ns#">
      <rdf:Description rdf:about=""
        xmlns:xmpMM="http://ns.adobe.com/xap/1.0/mm/"
        xmlns:stEvt="http://ns.adobe.com/xap/1.0/sType/ResourceEvent#"
        xmlns:xmp="http://ns.adobe.com/xap/1.0/"
        xmlns:xmpRights="http://ns.adobe.com/xap/1.0/rights/"
        xmlns:dc="http://purl.org/dc/elements/1.1/"
       xmpMM:DocumentID="xmp.did:013ed2662c21f7dde8f1085d9fdabba7"
       xmpMM:OriginalDocumentID="xmp.did:013ed2662c21f7dde8f1085d9fdabba7"
       xmpMM:InstanceID="xmp.iid:013ed2662c21f7dde8f1085d9fdabba7"
       xmp:ModifyDate="2015-04-24T12:53:23+02:00"
       xmp:MetadataDate="2015-04-24T12:53:23+02:00"
       xmpRights:Marked="True"
       xmpRights:WebStatement="http://www.adobe.com/legal/general-terms.html">
       <xmpMM:History>
        <rdf:Seq>
         <rdf:li
          stEvt:action="saved"
          stEvt:instanceID="xmp.iid:013ed2662c21f7dde8f1085d9fdabba7"
          stEvt:when="2015-04-24T12:53:23+02:00"/>
        </rdf:Seq>
       </xmpMM:History>
       <xmpRights:UsageTerms>
        <rdf:Alt>
         <rdf:li xml:lang="x-default">This work is licensed under the Adobe General Terms of Use http://www.adobe.com/legal/general-terms.html.</rdf:li>
        </rdf:Alt>
       </xmpRights:UsageTerms>
       <dc:publisher>
        <rdf:Bag>
         <rdf:li>Adobe Systems Incorporated</rdf:li>
        </rdf:Bag>
       </dc:publisher>
      </rdf:Description>
     </rdf:RDF>
    </x:xmpmeta>
    <?xpacket end="r"?>
  </metadata>
<g>
	<g id="Shape_1_74_">
		<path fill="#28628C" d="M406,37.6H94c-41.5,0-75.2,33.7-75.2,75.2v312c0,41.5,33.7,75.2,75.2,75.2H406c41.5,0,75.2-33.7,75.2-75.2
			v-312C481.2,71.3,447.5,37.6,406,37.6z"/>
	</g>
	<g id="Shape_1_copy_74_">
		<path fill="#3F91CB" d="M406,0H94C52.5,0,18.8,33.7,18.8,75.2v312c0,41.5,33.7,75.2,75.2,75.2H406c41.5,0,75.2-33.7,75.2-75.2
			v-312C481.2,33.7,447.5,0,406,0z"/>
	</g>
	<path fill="#1F6299" d="M345.8,134.4l-119.4-1l-8.9-9.8l-33,6.4l-20.8-5.4L18.8,258.3v128.9c0,41.5,33.7,75.2,75.2,75.2h129.5
		c69.4-73.3,137.7-148,137.7-148l-2.5-29L345.8,134.4z"/>
	<g id="GitHub_icon_1_">
		<path fill="#FFFFFF" d="M250,92.4c-76.5,0-138.5,62-138.5,138.6c0,65.1,44.9,119.7,105.4,134.5c0-17.1-0.1-49.7-0.1-50.9
			c-0.3-0.2-26.3,15.1-39.5-11.6c-1.6-3.3-4.8-14.3-12.9-20.5c-0.3-0.2-6.2-3.3-6.8-6.3c-0.1-0.4,0.4-1.3,1-1.5
			c0.6-0.2,10.4-4.2,21.3,9.6c3.3,4.6,10.7,22.4,36.8,11.4c0.7-2.7,1.2-7.2,6.8-12.3c-38.8-4.6-52.9-17.9-58.4-51.1
			c-3.4-22.6,3.2-41.4,13.1-50.7c-1.5-2-6.4-18.5,1.2-36c8.3-1.7,23.6,4.3,37,14c18.9-6.8,54.5-5.1,67.2,0c6-5,27.6-16.7,36.9-14
			c2.7,6.9,6.6,23.7,1.2,36c12.1,12.4,15.5,28.5,13.3,48.2c-2.7,29.9-17.8,50-58.8,53.5c6.8,4.8,13.1,11.5,13.1,22.7
			c0,12.1,0,41,0,57.6c57.4-17,99.2-70,99.2-132.9C388.5,154.4,326.5,92.4,250,92.4z"/>
	</g>
</g>
</svg>
