<?xml version="1.0" encoding="utf-8"?>
<!-- Generator: Adobe Illustrator 18.0.0, SVG Export Plug-In . SVG Version: 6.00 Build 0)  -->
<!DOCTYPE svg PUBLIC "-//W3C//DTD SVG 1.1//EN" "http://www.w3.org/Graphics/SVG/1.1/DTD/svg11.dtd">
<svg version="1.1" id="Arrow_1_" xmlns="http://www.w3.org/2000/svg" xmlns:xlink="http://www.w3.org/1999/xlink" x="0px" y="0px"
	 width="500px" height="500px" viewBox="0 0 500 500" enable-background="new 0 0 500 500" xml:space="preserve">
  <metadata>
    <?xpacket begin="﻿" id="W5M0MpCehiHzreSzNTczkc9d"?>
    <x:xmpmeta xmlns:x="adobe:ns:meta/" x:xmptk="Adobe XMP Core 5.6-c011 79.156380, 2014/06/19-23:40:37        ">
     <rdf:RDF xmlns:rdf="http://www.w3.org/1999/02/22-rdf-syntax-ns#">
      <rdf:Description rdf:about=""
        xmlns:xmpMM="http://ns.adobe.com/xap/1.0/mm/"
        xmlns:stEvt="http://ns.adobe.com/xap/1.0/sType/ResourceEvent#"
        xmlns:xmp="http://ns.adobe.com/xap/1.0/"
        xmlns:xmpRights="http://ns.adobe.com/xap/1.0/rights/"
        xmlns:dc="http://purl.org/dc/elements/1.1/"
       xmpMM:DocumentID="xmp.did:b92d0e772b2be91a6eb6a0038cc407a4"
       xmpMM:OriginalDocumentID="xmp.did:b92d0e772b2be91a6eb6a0038cc407a4"
       xmpMM:InstanceID="xmp.iid:b92d0e772b2be91a6eb6a0038cc407a4"
       xmp:ModifyDate="2015-04-16T19:17:58+02:00"
       xmp:MetadataDate="2015-04-16T19:17:58+02:00"
       xmpRights:Marked="True"
       xmpRights:WebStatement="http://www.adobe.com/legal/general-terms.html">
       <xmpMM:History>
        <rdf:Seq>
         <rdf:li
          stEvt:action="saved"
          stEvt:instanceID="xmp.iid:b92d0e772b2be91a6eb6a0038cc407a4"
          stEvt:when="2015-04-16T19:17:58+02:00"/>
        </rdf:Seq>
       </xmpMM:History>
       <xmpRights:UsageTerms>
        <rdf:Alt>
         <rdf:li xml:lang="x-default">This work is licensed under the Adobe General Terms of Use http://www.adobe.com/legal/general-terms.html.</rdf:li>
        </rdf:Alt>
       </xmpRights:UsageTerms>
       <dc:publisher>
        <rdf:Bag>
         <rdf:li>Adobe Systems Incorporated</rdf:li>
        </rdf:Bag>
       </dc:publisher>
      </rdf:Description>
     </rdf:RDF>
    </x:xmpmeta>
    <?xpacket end="r"?>
  </metadata>
<g>
	<g id="Shape_1_16_">
		<path fill="#005E89" d="M406,37.6H94c-41.5,0-75.2,33.7-75.2,75.2v312c0,41.5,33.7,75.2,75.2,75.2h312c41.5,0,75.2-33.7,75.2-75.2
			v-312C481.2,71.3,447.5,37.6,406,37.6z"/>
	</g>
	<g id="Shape_1_copy_16_">
		<path fill="#0083BD" d="M406,0H94C52.5,0,18.8,33.7,18.8,75.2v312c0,41.5,33.7,75.2,75.2,75.2h312c41.5,0,75.2-33.7,75.2-75.2
			v-312C481.2,33.7,447.5,0,406,0z"/>
	</g>
	<path fill="#005E9D" d="M315.1,194.2l-88.7-20.3l-8.9-9.8l-33,44.2l-10,13.5l-3.7-27.8c0,0,0.7-12.9,0.5-29.4l22.2-33l-19.5-15.2
		l-5.7,3.9c-3.2-20.7-9.8-34.4-22.9-21.7c-31.1,30.4-88.7,83.9-126.7,121.1v167.5c0,41.5,33.7,75.2,75.2,75.2h135.2
		c48.8-49,98.2-98.6,131.5-131.8L315.1,194.2z"/>
	<g id="Shape_7_copy_1_">
		<path fill="#F4F4F4" d="M145.8,330.6h47.8V163.4h-47.8V330.6z M328.2,172.9c-17.8-10-44-10.8-63-2.2v-7.3h-47.8v167.2h47.8
			c0,0,0-103,0-106.9c0-10,11.7-13.3,25-13.3c13.3,0,22.7,10.9,22.8,18.7v101.5h47.8V229.1C360.8,207.1,347.1,183.5,328.2,172.9z
			 M169.7,85.8c-16.5,0-29.9,13.4-29.9,29.9s13.3,29.8,29.9,29.8c16.5,0,29.9-13.4,29.9-29.8S186.2,85.8,169.7,85.8z"/>
	</g>
</g>
</svg>
